# xmcd
#
# Track frame offsets: 
#        150
#        18095
#        35932
#        52547
#        72570
#        90080
#        107852
#        125067
#        144207
#        157832
#        176452
#        193672
#        210870
#        227825
#        244372
#        261992
#        279402
#        294467
#
# Disc length: 4161 seconds
#
# Revision: 2
# Processed by: cddbd v1.5.2PL0 Copyright (c) Steve Scherf et al.
# Submitted via: ExactAudioCopyFreeDBPlugin 1.0
#
DISCID=f7103f12
DTITLE=Various Artsts - Motown Chartbusters Volume 12
DYEAR=1900
DGENRE=Motown
TTITLE0=Smokey Robinson - Being With You
TTITLE1=The Commodores - Lady (You Bring Me Up)
TTITLE2=Michael Jackson - We're Almost There
TTITLE3=Diana Ross and Lionel Richie - Endless Love
TTITLE4=Rick James - Give It To Me
TTITLE5=Diana Ross - I'm Coming Out
TTITLE6=Jermaine Jackson - You Like Me Don't You
TTITLE7=Teena  Marie - It Must Be Magic
TTITLE8=The Commodores - Oh No
TTITLE9=Michael Jackson - One Day In Your Life
TTITLE10=Diana Ross - Tenderness
TTITLE11=Smokey Robinson - Tell Me Tommorow (Part 1)
TTITLE12=Jose Feliciano - I Wanna Be Where You Are
TTITLE13=Syreeta - I Must Be In Love
TTITLE14=The Commodores - Why You Wanna TryMe
TTITLE15=Jermaine Jackson - Paradise In Your Eyes
TTITLE16=Rick James - Super Freak (Part 1)
TTITLE17=Diana Ross - It's My Turn
EXTD=another TIM1701 title system! Share the welth peeps!
EXTT0=
EXTT1=
EXTT2=
EXTT3=
EXTT4=
EXTT5=
EXTT6=
EXTT7=
EXTT8=
EXTT9=
EXTT10=
EXTT11=
EXTT12=
EXTT13=
EXTT14=
EXTT15=
EXTT16=
EXTT17=
PLAYORDER=
